<svg xmlns="http://www.w3.org/2000/svg" version="1.1" xmlns:xlink="http://www.w3.org/1999/xlink" xmlns:svgjs="http://svgjs.com/svgjs" width="800" height="1000" preserveAspectRatio="none" viewBox="0 0 800 1000"><g mask="url(&quot;#SvgjsMask1070&quot;)" fill="none"><path d="M 0,220 C 14.6,243 43.8,342 73,335 C 102.2,328 116.8,192 146,185 C 175.2,178 189.8,299 219,300 C 248.2,301 262.8,151 292,190 C 321.2,229 335.8,531.8 365,495 C 394.2,458.2 408.8,17.6 438,6 C 467.2,-5.6 481.8,421 511,437 C 540.2,453 554.8,114.6 584,86 C 613.2,57.4 627.8,294.6 657,294 C 686.2,293.4 701.4,85.6 730,83 C 758.6,80.4 786,241.4 800,281L800 1000L0 1000z" fill="rgba(87, 16, 85, 0.57)"></path><path d="M 0,651 C 13.4,697.2 40.2,898.6 67,882 C 93.8,865.4 107.2,560.6 134,568 C 160.8,575.4 174.2,926 201,919 C 227.8,912 241.2,547.4 268,533 C 294.8,518.6 308.2,853.6 335,847 C 361.8,840.4 375.2,511 402,500 C 428.8,489 442.2,752.2 469,792 C 495.8,831.8 509.2,679.8 536,699 C 562.8,718.2 576.2,881.8 603,888 C 629.8,894.2 643.2,744.6 670,730 C 696.8,715.4 711,859.8 737,815 C 763,770.2 787.4,567.8 800,506L800 1000L0 1000z" fill="rgba(141, 29, 112, 0.53)"></path></g><defs><mask id="SvgjsMask1070"><rect width="800" height="1000" fill="#ffffff"></rect></mask></defs></svg>