<?xml version="1.0" standalone="no"?><svg xmlns="http://www.w3.org/2000/svg" viewBox="0 0 1440 320"><path fill="#f3f4f5" fill-opacity="1" d="M0,160L34.3,144C68.6,128,137,96,206,106.7C274.3,117,343,171,411,170.7C480,171,549,117,617,122.7C685.7,128,754,192,823,202.7C891.4,213,960,171,1029,170.7C1097.1,171,1166,213,1234,213.3C1302.9,213,1371,171,1406,149.3L1440,128L1440,320L1405.7,320C1371.4,320,1303,320,1234,320C1165.7,320,1097,320,1029,320C960,320,891,320,823,320C754.3,320,686,320,617,320C548.6,320,480,320,411,320C342.9,320,274,320,206,320C137.1,320,69,320,34,320L0,320Z"></path></svg>