<svg xmlns="http://www.w3.org/2000/svg" version="1.1" xmlns:xlink="http://www.w3.org/1999/xlink" xmlns:svgjs="http://svgjs.com/svgjs" width="800" height="1000" preserveAspectRatio="none" viewBox="0 0 800 1000"><g mask="url(&quot;#SvgjsMask1024&quot;)" fill="none"><path d="M-77.02 784.65L-77.02 784.65" stroke="rgba(154, 10, 157, 1)" stroke-width="1.5"></path><path d="M-77.02 784.65L60.14 828.35" stroke="rgba(154, 10, 157, 1)" stroke-width="1.5"></path><path d="M-77.02 784.65L57.16 718.15" stroke="rgba(154, 10, 157, 1)" stroke-width="1.5"></path><path d="M-58.74 960.83L-58.74 960.83" stroke="rgba(154, 10, 157, 1)" stroke-width="1.5"></path><path d="M-58.74 960.83L-63.94 1056.65" stroke="rgba(154, 10, 157, 1)" stroke-width="1.5"></path><path d="M-58.74 960.83L76.09 938.34" stroke="rgba(154, 10, 157, 1)" stroke-width="1.5"></path><path d="M-58.74 960.83L-77.02 784.65" stroke="rgba(154, 10, 157, 1)" stroke-width="1.5"></path><path d="M-63.94 1056.65L-63.94 1056.65" stroke="rgba(154, 10, 157, 1)" stroke-width="1.5"></path><path d="M-63.94 1056.65L77.49 1078.16" stroke="rgba(154, 10, 157, 1)" stroke-width="1.5"></path><path d="M-63.94 1056.65L76.09 938.34" stroke="rgba(154, 10, 157, 1)" stroke-width="1.5"></path><path d="M-63.94 1056.65L60.14 828.35" stroke="rgba(154, 10, 157, 1)" stroke-width="1.5"></path><path d="M57.16 718.15L57.16 718.15" stroke="rgba(154, 10, 157, 1)" stroke-width="1.5"></path><path d="M57.16 718.15L60.14 828.35" stroke="rgba(154, 10, 157, 1)" stroke-width="1.5"></path><path d="M57.16 718.15L176.64 703.94" stroke="rgba(154, 10, 157, 1)" stroke-width="1.5"></path><path d="M57.16 718.15L76.09 938.34" stroke="rgba(154, 10, 157, 1)" stroke-width="1.5"></path><path d="M57.16 718.15L159.49 914.68" stroke="rgba(154, 10, 157, 1)" stroke-width="1.5"></path><path d="M57.16 718.15L-58.74 960.83" stroke="rgba(154, 10, 157, 1)" stroke-width="1.5"></path><path d="M60.14 828.35L60.14 828.35" stroke="rgba(154, 10, 157, 1)" stroke-width="1.5"></path><path d="M60.14 828.35L76.09 938.34" stroke="rgba(154, 10, 157, 1)" stroke-width="1.5"></path><path d="M60.14 828.35L159.49 914.68" stroke="rgba(154, 10, 157, 1)" stroke-width="1.5"></path><path d="M60.14 828.35L176.64 703.94" stroke="rgba(154, 10, 157, 1)" stroke-width="1.5"></path><path d="M60.14 828.35L-58.74 960.83" stroke="rgba(154, 10, 157, 1)" stroke-width="1.5"></path><path d="M76.09 938.34L76.09 938.34" stroke="rgba(154, 10, 157, 1)" stroke-width="1.5"></path><path d="M76.09 938.34L159.49 914.68" stroke="rgba(154, 10, 157, 1)" stroke-width="1.5"></path><path d="M77.49 1078.16L77.49 1078.16" stroke="rgba(154, 10, 157, 1)" stroke-width="1.5"></path><path d="M77.49 1078.16L76.09 938.34" stroke="rgba(154, 10, 157, 1)" stroke-width="1.5"></path><path d="M77.49 1078.16L-58.74 960.83" stroke="rgba(154, 10, 157, 1)" stroke-width="1.5"></path><path d="M77.49 1078.16L159.49 914.68" stroke="rgba(154, 10, 157, 1)" stroke-width="1.5"></path><path d="M176.64 703.94L176.64 703.94" stroke="rgba(154, 10, 157, 1)" stroke-width="1.5"></path><path d="M176.64 703.94L339.96 707.15" stroke="rgba(154, 10, 157, 1)" stroke-width="1.5"></path><path d="M159.49 914.68L159.49 914.68" stroke="rgba(154, 10, 157, 1)" stroke-width="1.5"></path><path d="M159.49 914.68L334.71 926.71" stroke="rgba(154, 10, 157, 1)" stroke-width="1.5"></path><path d="M331.91 441.6L331.91 441.6" stroke="rgba(154, 10, 157, 1)" stroke-width="1.5"></path><path d="M331.91 441.6L320.56 534.2" stroke="rgba(154, 10, 157, 1)" stroke-width="1.5"></path><path d="M331.91 441.6L454.49 431.46" stroke="rgba(154, 10, 157, 1)" stroke-width="1.5"></path><path d="M331.91 441.6L443.5 336.47" stroke="rgba(154, 10, 157, 1)" stroke-width="1.5"></path><path d="M320.56 534.2L320.56 534.2" stroke="rgba(154, 10, 157, 1)" stroke-width="1.5"></path><path d="M320.56 534.2L442.54 555.5" stroke="rgba(154, 10, 157, 1)" stroke-width="1.5"></path><path d="M320.56 534.2L454.49 431.46" stroke="rgba(154, 10, 157, 1)" stroke-width="1.5"></path><path d="M320.56 534.2L339.96 707.15" stroke="rgba(154, 10, 157, 1)" stroke-width="1.5"></path><path d="M339.96 707.15L339.96 707.15" stroke="rgba(154, 10, 157, 1)" stroke-width="1.5"></path><path d="M339.96 707.15L442.64 681.89" stroke="rgba(154, 10, 157, 1)" stroke-width="1.5"></path><path d="M339.96 707.15L431.25 792.23" stroke="rgba(154, 10, 157, 1)" stroke-width="1.5"></path><path d="M334.71 926.71L334.71 926.71" stroke="rgba(154, 10, 157, 1)" stroke-width="1.5"></path><path d="M334.71 926.71L436.98 952.61" stroke="rgba(154, 10, 157, 1)" stroke-width="1.5"></path><path d="M334.71 926.71L304.11 1066.01" stroke="rgba(154, 10, 157, 1)" stroke-width="1.5"></path><path d="M334.71 926.71L431.25 792.23" stroke="rgba(154, 10, 157, 1)" stroke-width="1.5"></path><path d="M334.71 926.71L428.66 1078.56" stroke="rgba(154, 10, 157, 1)" stroke-width="1.5"></path><path d="M334.71 926.71L339.96 707.15" stroke="rgba(154, 10, 157, 1)" stroke-width="1.5"></path><path d="M304.11 1066.01L304.11 1066.01" stroke="rgba(154, 10, 157, 1)" stroke-width="1.5"></path><path d="M304.11 1066.01L428.66 1078.56" stroke="rgba(154, 10, 157, 1)" stroke-width="1.5"></path><path d="M443.5 336.47L443.5 336.47" stroke="rgba(154, 10, 157, 1)" stroke-width="1.5"></path><path d="M443.5 336.47L454.49 431.46" stroke="rgba(154, 10, 157, 1)" stroke-width="1.5"></path><path d="M443.5 336.47L592.45 202.61" stroke="rgba(154, 10, 157, 1)" stroke-width="1.5"></path><path d="M454.49 431.46L454.49 431.46" stroke="rgba(154, 10, 157, 1)" stroke-width="1.5"></path><path d="M454.49 431.46L442.54 555.5" stroke="rgba(154, 10, 157, 1)" stroke-width="1.5"></path><path d="M454.49 431.46L571.42 593.29" stroke="rgba(154, 10, 157, 1)" stroke-width="1.5"></path><path d="M442.54 555.5L442.54 555.5" stroke="rgba(154, 10, 157, 1)" stroke-width="1.5"></path><path d="M442.54 555.5L442.64 681.89" stroke="rgba(154, 10, 157, 1)" stroke-width="1.5"></path><path d="M442.54 555.5L571.42 593.29" stroke="rgba(154, 10, 157, 1)" stroke-width="1.5"></path><path d="M442.54 555.5L331.91 441.6" stroke="rgba(154, 10, 157, 1)" stroke-width="1.5"></path><path d="M442.64 681.89L442.64 681.89" stroke="rgba(154, 10, 157, 1)" stroke-width="1.5"></path><path d="M442.64 681.89L431.25 792.23" stroke="rgba(154, 10, 157, 1)" stroke-width="1.5"></path><path d="M442.64 681.89L581.98 706.36" stroke="rgba(154, 10, 157, 1)" stroke-width="1.5"></path><path d="M431.25 792.23L431.25 792.23" stroke="rgba(154, 10, 157, 1)" stroke-width="1.5"></path><path d="M431.25 792.23L536.02 789.67" stroke="rgba(154, 10, 157, 1)" stroke-width="1.5"></path><path d="M431.25 792.23L436.98 952.61" stroke="rgba(154, 10, 157, 1)" stroke-width="1.5"></path><path d="M436.98 952.61L436.98 952.61" stroke="rgba(154, 10, 157, 1)" stroke-width="1.5"></path><path d="M436.98 952.61L557.76 935.02" stroke="rgba(154, 10, 157, 1)" stroke-width="1.5"></path><path d="M436.98 952.61L428.66 1078.56" stroke="rgba(154, 10, 157, 1)" stroke-width="1.5"></path><path d="M428.66 1078.56L428.66 1078.56" stroke="rgba(154, 10, 157, 1)" stroke-width="1.5"></path><path d="M541.53 -31.34L541.53 -31.34" stroke="rgba(154, 10, 157, 1)" stroke-width="1.5"></path><path d="M541.53 -31.34L566.54 61.65" stroke="rgba(154, 10, 157, 1)" stroke-width="1.5"></path><path d="M566.54 61.65L566.54 61.65" stroke="rgba(154, 10, 157, 1)" stroke-width="1.5"></path><path d="M566.54 61.65L668.56 32.8" stroke="rgba(154, 10, 157, 1)" stroke-width="1.5"></path><path d="M566.54 61.65L592.45 202.61" stroke="rgba(154, 10, 157, 1)" stroke-width="1.5"></path><path d="M592.45 202.61L592.45 202.61" stroke="rgba(154, 10, 157, 1)" stroke-width="1.5"></path><path d="M592.45 202.61L685.33 209.5" stroke="rgba(154, 10, 157, 1)" stroke-width="1.5"></path><path d="M571.42 593.29L571.42 593.29" stroke="rgba(154, 10, 157, 1)" stroke-width="1.5"></path><path d="M571.42 593.29L581.98 706.36" stroke="rgba(154, 10, 157, 1)" stroke-width="1.5"></path><path d="M571.42 593.29L682.63 559.63" stroke="rgba(154, 10, 157, 1)" stroke-width="1.5"></path><path d="M571.42 593.29L674.73 679.2" stroke="rgba(154, 10, 157, 1)" stroke-width="1.5"></path><path d="M571.42 593.29L442.64 681.89" stroke="rgba(154, 10, 157, 1)" stroke-width="1.5"></path><path d="M571.42 593.29L660.42 452.74" stroke="rgba(154, 10, 157, 1)" stroke-width="1.5"></path><path d="M581.98 706.36L581.98 706.36" stroke="rgba(154, 10, 157, 1)" stroke-width="1.5"></path><path d="M581.98 706.36L536.02 789.67" stroke="rgba(154, 10, 157, 1)" stroke-width="1.5"></path><path d="M581.98 706.36L674.73 679.2" stroke="rgba(154, 10, 157, 1)" stroke-width="1.5"></path><path d="M536.02 789.67L536.02 789.67" stroke="rgba(154, 10, 157, 1)" stroke-width="1.5"></path><path d="M536.02 789.67L657.42 805.14" stroke="rgba(154, 10, 157, 1)" stroke-width="1.5"></path><path d="M557.76 935.02L557.76 935.02" stroke="rgba(154, 10, 157, 1)" stroke-width="1.5"></path><path d="M557.76 935.02L536.02 789.67" stroke="rgba(154, 10, 157, 1)" stroke-width="1.5"></path><path d="M557.76 935.02L704.09 956.48" stroke="rgba(154, 10, 157, 1)" stroke-width="1.5"></path><path d="M557.76 935.02L657.42 805.14" stroke="rgba(154, 10, 157, 1)" stroke-width="1.5"></path><path d="M557.76 935.02L431.25 792.23" stroke="rgba(154, 10, 157, 1)" stroke-width="1.5"></path><path d="M707.98 -88.61L707.98 -88.61" stroke="rgba(154, 10, 157, 1)" stroke-width="1.5"></path><path d="M707.98 -88.61L811.74 -77.3" stroke="rgba(154, 10, 157, 1)" stroke-width="1.5"></path><path d="M707.98 -88.61L668.56 32.8" stroke="rgba(154, 10, 157, 1)" stroke-width="1.5"></path><path d="M707.98 -88.61L541.53 -31.34" stroke="rgba(154, 10, 157, 1)" stroke-width="1.5"></path><path d="M707.98 -88.61L809.72 90.57" stroke="rgba(154, 10, 157, 1)" stroke-width="1.5"></path><path d="M668.56 32.8L668.56 32.8" stroke="rgba(154, 10, 157, 1)" stroke-width="1.5"></path><path d="M685.33 209.5L685.33 209.5" stroke="rgba(154, 10, 157, 1)" stroke-width="1.5"></path><path d="M685.33 209.5L796.4 195.63" stroke="rgba(154, 10, 157, 1)" stroke-width="1.5"></path><path d="M685.33 209.5L782.78 281.7" stroke="rgba(154, 10, 157, 1)" stroke-width="1.5"></path><path d="M685.33 209.5L685.26 336.75" stroke="rgba(154, 10, 157, 1)" stroke-width="1.5"></path><path d="M685.33 209.5L809.72 90.57" stroke="rgba(154, 10, 157, 1)" stroke-width="1.5"></path><path d="M685.26 336.75L685.26 336.75" stroke="rgba(154, 10, 157, 1)" stroke-width="1.5"></path><path d="M685.26 336.75L782.78 281.7" stroke="rgba(154, 10, 157, 1)" stroke-width="1.5"></path><path d="M685.26 336.75L660.42 452.74" stroke="rgba(154, 10, 157, 1)" stroke-width="1.5"></path><path d="M685.26 336.75L783.25 428.04" stroke="rgba(154, 10, 157, 1)" stroke-width="1.5"></path><path d="M660.42 452.74L660.42 452.74" stroke="rgba(154, 10, 157, 1)" stroke-width="1.5"></path><path d="M660.42 452.74L682.63 559.63" stroke="rgba(154, 10, 157, 1)" stroke-width="1.5"></path><path d="M682.63 559.63L682.63 559.63" stroke="rgba(154, 10, 157, 1)" stroke-width="1.5"></path><path d="M674.73 679.2L674.73 679.2" stroke="rgba(154, 10, 157, 1)" stroke-width="1.5"></path><path d="M674.73 679.2L682.63 559.63" stroke="rgba(154, 10, 157, 1)" stroke-width="1.5"></path><path d="M674.73 679.2L657.42 805.14" stroke="rgba(154, 10, 157, 1)" stroke-width="1.5"></path><path d="M674.73 679.2L813.88 681.43" stroke="rgba(154, 10, 157, 1)" stroke-width="1.5"></path><path d="M657.42 805.14L657.42 805.14" stroke="rgba(154, 10, 157, 1)" stroke-width="1.5"></path><path d="M657.42 805.14L581.98 706.36" stroke="rgba(154, 10, 157, 1)" stroke-width="1.5"></path><path d="M704.09 956.48L704.09 956.48" stroke="rgba(154, 10, 157, 1)" stroke-width="1.5"></path><path d="M704.09 956.48L708.77 1054.98" stroke="rgba(154, 10, 157, 1)" stroke-width="1.5"></path><path d="M704.09 956.48L819.03 907.65" stroke="rgba(154, 10, 157, 1)" stroke-width="1.5"></path><path d="M708.77 1054.98L708.77 1054.98" stroke="rgba(154, 10, 157, 1)" stroke-width="1.5"></path><path d="M708.77 1054.98L842.77 1075.38" stroke="rgba(154, 10, 157, 1)" stroke-width="1.5"></path><path d="M708.77 1054.98L819.03 907.65" stroke="rgba(154, 10, 157, 1)" stroke-width="1.5"></path><path d="M708.77 1054.98L557.76 935.02" stroke="rgba(154, 10, 157, 1)" stroke-width="1.5"></path><path d="M708.77 1054.98L797.31 816.8" stroke="rgba(154, 10, 157, 1)" stroke-width="1.5"></path><path d="M708.77 1054.98L657.42 805.14" stroke="rgba(154, 10, 157, 1)" stroke-width="1.5"></path><path d="M811.74 -77.3L811.74 -77.3" stroke="rgba(154, 10, 157, 1)" stroke-width="1.5"></path><path d="M811.74 -77.3L928.2 -56.72" stroke="rgba(154, 10, 157, 1)" stroke-width="1.5"></path><path d="M809.72 90.57L809.72 90.57" stroke="rgba(154, 10, 157, 1)" stroke-width="1.5"></path><path d="M809.72 90.57L796.4 195.63" stroke="rgba(154, 10, 157, 1)" stroke-width="1.5"></path><path d="M809.72 90.57L917.67 164.88" stroke="rgba(154, 10, 157, 1)" stroke-width="1.5"></path><path d="M809.72 90.57L668.56 32.8" stroke="rgba(154, 10, 157, 1)" stroke-width="1.5"></path><path d="M796.4 195.63L796.4 195.63" stroke="rgba(154, 10, 157, 1)" stroke-width="1.5"></path><path d="M796.4 195.63L782.78 281.7" stroke="rgba(154, 10, 157, 1)" stroke-width="1.5"></path><path d="M782.78 281.7L782.78 281.7" stroke="rgba(154, 10, 157, 1)" stroke-width="1.5"></path><path d="M783.25 428.04L783.25 428.04" stroke="rgba(154, 10, 157, 1)" stroke-width="1.5"></path><path d="M783.25 428.04L660.42 452.74" stroke="rgba(154, 10, 157, 1)" stroke-width="1.5"></path><path d="M783.25 428.04L918.65 423.16" stroke="rgba(154, 10, 157, 1)" stroke-width="1.5"></path><path d="M783.25 428.04L782.78 281.7" stroke="rgba(154, 10, 157, 1)" stroke-width="1.5"></path><path d="M783.25 428.04L819.17 573.66" stroke="rgba(154, 10, 157, 1)" stroke-width="1.5"></path><path d="M819.17 573.66L819.17 573.66" stroke="rgba(154, 10, 157, 1)" stroke-width="1.5"></path><path d="M819.17 573.66L813.88 681.43" stroke="rgba(154, 10, 157, 1)" stroke-width="1.5"></path><path d="M819.17 573.66L932.77 579.02" stroke="rgba(154, 10, 157, 1)" stroke-width="1.5"></path><path d="M813.88 681.43L813.88 681.43" stroke="rgba(154, 10, 157, 1)" stroke-width="1.5"></path><path d="M813.88 681.43L931.06 685.97" stroke="rgba(154, 10, 157, 1)" stroke-width="1.5"></path><path d="M813.88 681.43L797.31 816.8" stroke="rgba(154, 10, 157, 1)" stroke-width="1.5"></path><path d="M797.31 816.8L797.31 816.8" stroke="rgba(154, 10, 157, 1)" stroke-width="1.5"></path><path d="M797.31 816.8L819.03 907.65" stroke="rgba(154, 10, 157, 1)" stroke-width="1.5"></path><path d="M819.03 907.65L819.03 907.65" stroke="rgba(154, 10, 157, 1)" stroke-width="1.5"></path><path d="M842.77 1075.38L842.77 1075.38" stroke="rgba(154, 10, 157, 1)" stroke-width="1.5"></path><path d="M842.77 1075.38L819.03 907.65" stroke="rgba(154, 10, 157, 1)" stroke-width="1.5"></path><path d="M842.77 1075.38L704.09 956.48" stroke="rgba(154, 10, 157, 1)" stroke-width="1.5"></path><path d="M842.77 1075.38L944.98 911.5" stroke="rgba(154, 10, 157, 1)" stroke-width="1.5"></path><path d="M842.77 1075.38L797.31 816.8" stroke="rgba(154, 10, 157, 1)" stroke-width="1.5"></path><path d="M928.2 -56.72L928.2 -56.72" stroke="rgba(154, 10, 157, 1)" stroke-width="1.5"></path><path d="M928.2 -56.72L809.72 90.57" stroke="rgba(154, 10, 157, 1)" stroke-width="1.5"></path><path d="M928.2 -56.72L917.67 164.88" stroke="rgba(154, 10, 157, 1)" stroke-width="1.5"></path><path d="M928.2 -56.72L707.98 -88.61" stroke="rgba(154, 10, 157, 1)" stroke-width="1.5"></path><path d="M928.2 -56.72L668.56 32.8" stroke="rgba(154, 10, 157, 1)" stroke-width="1.5"></path><path d="M928.2 -56.72L796.4 195.63" stroke="rgba(154, 10, 157, 1)" stroke-width="1.5"></path><path d="M917.67 164.88L917.67 164.88" stroke="rgba(154, 10, 157, 1)" stroke-width="1.5"></path><path d="M917.67 164.88L796.4 195.63" stroke="rgba(154, 10, 157, 1)" stroke-width="1.5"></path><path d="M917.67 164.88L957.22 299.21" stroke="rgba(154, 10, 157, 1)" stroke-width="1.5"></path><path d="M917.67 164.88L782.78 281.7" stroke="rgba(154, 10, 157, 1)" stroke-width="1.5"></path><path d="M917.67 164.88L685.33 209.5" stroke="rgba(154, 10, 157, 1)" stroke-width="1.5"></path><path d="M957.22 299.21L957.22 299.21" stroke="rgba(154, 10, 157, 1)" stroke-width="1.5"></path><path d="M957.22 299.21L918.65 423.16" stroke="rgba(154, 10, 157, 1)" stroke-width="1.5"></path><path d="M918.65 423.16L918.65 423.16" stroke="rgba(154, 10, 157, 1)" stroke-width="1.5"></path><path d="M918.65 423.16L932.77 579.02" stroke="rgba(154, 10, 157, 1)" stroke-width="1.5"></path><path d="M918.65 423.16L819.17 573.66" stroke="rgba(154, 10, 157, 1)" stroke-width="1.5"></path><path d="M918.65 423.16L782.78 281.7" stroke="rgba(154, 10, 157, 1)" stroke-width="1.5"></path><path d="M918.65 423.16L685.26 336.75" stroke="rgba(154, 10, 157, 1)" stroke-width="1.5"></path><path d="M932.77 579.02L932.77 579.02" stroke="rgba(154, 10, 157, 1)" stroke-width="1.5"></path><path d="M932.77 579.02L931.06 685.97" stroke="rgba(154, 10, 157, 1)" stroke-width="1.5"></path><path d="M932.77 579.02L813.88 681.43" stroke="rgba(154, 10, 157, 1)" stroke-width="1.5"></path><path d="M932.77 579.02L783.25 428.04" stroke="rgba(154, 10, 157, 1)" stroke-width="1.5"></path><path d="M932.77 579.02L682.63 559.63" stroke="rgba(154, 10, 157, 1)" stroke-width="1.5"></path><path d="M931.06 685.97L931.06 685.97" stroke="rgba(154, 10, 157, 1)" stroke-width="1.5"></path><path d="M944.98 911.5L944.98 911.5" stroke="rgba(154, 10, 157, 1)" stroke-width="1.5"></path><path d="M944.98 911.5L819.03 907.65" stroke="rgba(154, 10, 157, 1)" stroke-width="1.5"></path><path d="M944.98 911.5L797.31 816.8" stroke="rgba(154, 10, 157, 1)" stroke-width="1.5"></path><path d="M944.98 911.5L931.06 685.97" stroke="rgba(154, 10, 157, 1)" stroke-width="1.5"></path><path d="M944.98 911.5L704.09 956.48" stroke="rgba(154, 10, 157, 1)" stroke-width="1.5"></path><circle r="5" cx="-77.02" cy="784.65" fill="rgba(154, 10, 157, 1)"></circle><circle r="5" cx="-58.74" cy="960.83" fill="rgba(154, 10, 157, 1)"></circle><circle r="5" cx="-63.94" cy="1056.65" fill="rgba(154, 10, 157, 1)"></circle><circle r="5" cx="57.16" cy="718.15" fill="rgba(154, 10, 157, 1)"></circle><circle r="5" cx="60.14" cy="828.35" fill="rgba(154, 10, 157, 1)"></circle><circle r="5" cx="76.09" cy="938.34" fill="rgba(154, 10, 157, 1)"></circle><circle r="5" cx="77.49" cy="1078.16" fill="rgba(154, 10, 157, 1)"></circle><circle r="5" cx="176.64" cy="703.94" fill="rgba(154, 10, 157, 1)"></circle><circle r="5" cx="159.49" cy="914.68" fill="rgba(154, 10, 157, 1)"></circle><circle r="5" cx="331.91" cy="441.6" fill="rgba(154, 10, 157, 1)"></circle><circle r="5" cx="320.56" cy="534.2" fill="rgba(154, 10, 157, 1)"></circle><circle r="5" cx="339.96" cy="707.15" fill="rgba(154, 10, 157, 1)"></circle><circle r="5" cx="334.71" cy="926.71" fill="rgba(154, 10, 157, 1)"></circle><circle r="5" cx="304.11" cy="1066.01" fill="rgba(154, 10, 157, 1)"></circle><circle r="5" cx="443.5" cy="336.47" fill="rgba(154, 10, 157, 1)"></circle><circle r="5" cx="454.49" cy="431.46" fill="rgba(154, 10, 157, 1)"></circle><circle r="5" cx="442.54" cy="555.5" fill="rgba(154, 10, 157, 1)"></circle><circle r="5" cx="442.64" cy="681.89" fill="rgba(154, 10, 157, 1)"></circle><circle r="5" cx="431.25" cy="792.23" fill="rgba(154, 10, 157, 1)"></circle><circle r="5" cx="436.98" cy="952.61" fill="rgba(154, 10, 157, 1)"></circle><circle r="5" cx="428.66" cy="1078.56" fill="rgba(154, 10, 157, 1)"></circle><circle r="5" cx="541.53" cy="-31.34" fill="rgba(154, 10, 157, 1)"></circle><circle r="5" cx="566.54" cy="61.65" fill="rgba(154, 10, 157, 1)"></circle><circle r="5" cx="592.45" cy="202.61" fill="rgba(154, 10, 157, 1)"></circle><circle r="5" cx="571.42" cy="593.29" fill="rgba(154, 10, 157, 1)"></circle><circle r="5" cx="581.98" cy="706.36" fill="rgba(154, 10, 157, 1)"></circle><circle r="5" cx="536.02" cy="789.67" fill="rgba(154, 10, 157, 1)"></circle><circle r="5" cx="557.76" cy="935.02" fill="rgba(154, 10, 157, 1)"></circle><circle r="5" cx="707.98" cy="-88.61" fill="rgba(154, 10, 157, 1)"></circle><circle r="5" cx="668.56" cy="32.8" fill="rgba(154, 10, 157, 1)"></circle><circle r="5" cx="685.33" cy="209.5" fill="rgba(154, 10, 157, 1)"></circle><circle r="5" cx="685.26" cy="336.75" fill="rgba(154, 10, 157, 1)"></circle><circle r="5" cx="660.42" cy="452.74" fill="rgba(154, 10, 157, 1)"></circle><circle r="5" cx="682.63" cy="559.63" fill="rgba(154, 10, 157, 1)"></circle><circle r="5" cx="674.73" cy="679.2" fill="rgba(154, 10, 157, 1)"></circle><circle r="5" cx="657.42" cy="805.14" fill="rgba(154, 10, 157, 1)"></circle><circle r="5" cx="704.09" cy="956.48" fill="rgba(154, 10, 157, 1)"></circle><circle r="5" cx="708.77" cy="1054.98" fill="rgba(154, 10, 157, 1)"></circle><circle r="5" cx="811.74" cy="-77.3" fill="rgba(154, 10, 157, 1)"></circle><circle r="5" cx="809.72" cy="90.57" fill="rgba(154, 10, 157, 1)"></circle><circle r="5" cx="796.4" cy="195.63" fill="rgba(154, 10, 157, 1)"></circle><circle r="5" cx="782.78" cy="281.7" fill="rgba(154, 10, 157, 1)"></circle><circle r="5" cx="783.25" cy="428.04" fill="rgba(154, 10, 157, 1)"></circle><circle r="5" cx="819.17" cy="573.66" fill="rgba(154, 10, 157, 1)"></circle><circle r="5" cx="813.88" cy="681.43" fill="rgba(154, 10, 157, 1)"></circle><circle r="5" cx="797.31" cy="816.8" fill="rgba(154, 10, 157, 1)"></circle><circle r="5" cx="819.03" cy="907.65" fill="rgba(154, 10, 157, 1)"></circle><circle r="5" cx="842.77" cy="1075.38" fill="rgba(154, 10, 157, 1)"></circle><circle r="5" cx="928.2" cy="-56.72" fill="rgba(154, 10, 157, 1)"></circle><circle r="5" cx="917.67" cy="164.88" fill="rgba(154, 10, 157, 1)"></circle><circle r="5" cx="957.22" cy="299.21" fill="rgba(154, 10, 157, 1)"></circle><circle r="5" cx="918.65" cy="423.16" fill="rgba(154, 10, 157, 1)"></circle><circle r="5" cx="932.77" cy="579.02" fill="rgba(154, 10, 157, 1)"></circle><circle r="5" cx="931.06" cy="685.97" fill="rgba(154, 10, 157, 1)"></circle><circle r="5" cx="944.98" cy="911.5" fill="rgba(154, 10, 157, 1)"></circle><path d="M71.02 1068.84L71.02 1068.84" stroke="hsl(228.39999999999998, 98.6%, 36.2%)" stroke-width="1.5"></path><path d="M71.02 1068.84L177.98 1033.11" stroke="hsl(228.39999999999998, 98.6%, 36.2%)" stroke-width="1.5"></path><path d="M71.02 1068.84L87.96 914.05" stroke="hsl(228.39999999999998, 98.6%, 36.2%)" stroke-width="1.5"></path><path d="M71.02 1068.84L-90.28 1075.8" stroke="hsl(228.39999999999998, 98.6%, 36.2%)" stroke-width="1.5"></path><path d="M71.02 1068.84L-57.66 943.24" stroke="hsl(228.39999999999998, 98.6%, 36.2%)" stroke-width="1.5"></path><path d="M71.02 1068.84L205.91 919.93" stroke="hsl(228.39999999999998, 98.6%, 36.2%)" stroke-width="1.5"></path><path d="M309.83 967.7L309.83 967.7" stroke="hsl(228.39999999999998, 98.6%, 36.2%)" stroke-width="1.5"></path><path d="M309.83 967.7L302.02 1041.06" stroke="hsl(228.39999999999998, 98.6%, 36.2%)" stroke-width="1.5"></path><path d="M309.83 967.7L205.91 919.93" stroke="hsl(228.39999999999998, 98.6%, 36.2%)" stroke-width="1.5"></path><path d="M309.83 967.7L177.98 1033.11" stroke="hsl(228.39999999999998, 98.6%, 36.2%)" stroke-width="1.5"></path><path d="M309.83 967.7L409.5 1079.81" stroke="hsl(228.39999999999998, 98.6%, 36.2%)" stroke-width="1.5"></path><path d="M428.96 678.63L428.96 678.63" stroke="hsl(228.39999999999998, 98.6%, 36.2%)" stroke-width="1.5"></path><path d="M428.96 678.63L440.22 821.59" stroke="hsl(228.39999999999998, 98.6%, 36.2%)" stroke-width="1.5"></path><path d="M428.96 678.63L592.68 669.26" stroke="hsl(228.39999999999998, 98.6%, 36.2%)" stroke-width="1.5"></path><path d="M428.96 678.63L579.07 584.89" stroke="hsl(228.39999999999998, 98.6%, 36.2%)" stroke-width="1.5"></path><path d="M428.96 678.63L302.5 810.14" stroke="hsl(228.39999999999998, 98.6%, 36.2%)" stroke-width="1.5"></path><path d="M440.22 821.59L440.22 821.59" stroke="hsl(228.39999999999998, 98.6%, 36.2%)" stroke-width="1.5"></path><path d="M440.22 821.59L457.52 925.45" stroke="hsl(228.39999999999998, 98.6%, 36.2%)" stroke-width="1.5"></path><path d="M440.22 821.59L302.5 810.14" stroke="hsl(228.39999999999998, 98.6%, 36.2%)" stroke-width="1.5"></path><path d="M440.22 821.59L579.63 842.44" stroke="hsl(228.39999999999998, 98.6%, 36.2%)" stroke-width="1.5"></path><path d="M679.13 -46.39L679.13 -46.39" stroke="hsl(228.39999999999998, 98.6%, 36.2%)" stroke-width="1.5"></path><path d="M679.13 -46.39L671.5 47.06" stroke="hsl(228.39999999999998, 98.6%, 36.2%)" stroke-width="1.5"></path><path d="M679.13 -46.39L792.92 -56.4" stroke="hsl(228.39999999999998, 98.6%, 36.2%)" stroke-width="1.5"></path><path d="M679.13 -46.39L784.49 43.74" stroke="hsl(228.39999999999998, 98.6%, 36.2%)" stroke-width="1.5"></path><path d="M679.13 -46.39L912.96 -32.8" stroke="hsl(228.39999999999998, 98.6%, 36.2%)" stroke-width="1.5"></path><path d="M679.13 -46.39L680.42 218.64" stroke="hsl(228.39999999999998, 98.6%, 36.2%)" stroke-width="1.5"></path><path d="M679.13 -46.39L926.94 79.86" stroke="hsl(228.39999999999998, 98.6%, 36.2%)" stroke-width="1.5"></path><path d="M680.42 218.64L680.42 218.64" stroke="hsl(228.39999999999998, 98.6%, 36.2%)" stroke-width="1.5"></path><path d="M680.42 218.64L709.96 284.66" stroke="hsl(228.39999999999998, 98.6%, 36.2%)" stroke-width="1.5"></path><path d="M680.42 218.64L671.5 47.06" stroke="hsl(228.39999999999998, 98.6%, 36.2%)" stroke-width="1.5"></path><path d="M680.42 218.64L835.72 338.58" stroke="hsl(228.39999999999998, 98.6%, 36.2%)" stroke-width="1.5"></path><path d="M680.42 218.64L784.49 43.74" stroke="hsl(228.39999999999998, 98.6%, 36.2%)" stroke-width="1.5"></path><path d="M676.95 443.3L676.95 443.3" stroke="hsl(228.39999999999998, 98.6%, 36.2%)" stroke-width="1.5"></path><path d="M676.95 443.3L590.36 457.91" stroke="hsl(228.39999999999998, 98.6%, 36.2%)" stroke-width="1.5"></path><path d="M676.95 443.3L687.82 547.45" stroke="hsl(228.39999999999998, 98.6%, 36.2%)" stroke-width="1.5"></path><path d="M676.95 443.3L819.77 412.96" stroke="hsl(228.39999999999998, 98.6%, 36.2%)" stroke-width="1.5"></path><path d="M676.95 443.3L709.96 284.66" stroke="hsl(228.39999999999998, 98.6%, 36.2%)" stroke-width="1.5"></path><path d="M676.95 443.3L579.07 584.89" stroke="hsl(228.39999999999998, 98.6%, 36.2%)" stroke-width="1.5"></path><path d="M831.51 672.42L831.51 672.42" stroke="hsl(228.39999999999998, 98.6%, 36.2%)" stroke-width="1.5"></path><path d="M831.51 672.42L824.74 578.13" stroke="hsl(228.39999999999998, 98.6%, 36.2%)" stroke-width="1.5"></path><path d="M831.51 672.42L953.56 701.94" stroke="hsl(228.39999999999998, 98.6%, 36.2%)" stroke-width="1.5"></path><path d="M831.51 672.42L799.21 805.13" stroke="hsl(228.39999999999998, 98.6%, 36.2%)" stroke-width="1.5"></path><path d="M831.51 672.42L939.17 577.43" stroke="hsl(228.39999999999998, 98.6%, 36.2%)" stroke-width="1.5"></path><path d="M831.51 672.42L685.05 694.5" stroke="hsl(228.39999999999998, 98.6%, 36.2%)" stroke-width="1.5"></path><path d="M811.46 1035.92L811.46 1035.92" stroke="hsl(228.39999999999998, 98.6%, 36.2%)" stroke-width="1.5"></path><path d="M811.46 1035.92L784.76 930.91" stroke="hsl(228.39999999999998, 98.6%, 36.2%)" stroke-width="1.5"></path><path d="M811.46 1035.92L934.76 1063.84" stroke="hsl(228.39999999999998, 98.6%, 36.2%)" stroke-width="1.5"></path><path d="M811.46 1035.92L682.59 1063.09" stroke="hsl(228.39999999999998, 98.6%, 36.2%)" stroke-width="1.5"></path><path d="M811.46 1035.92L913.98 935.46" stroke="hsl(228.39999999999998, 98.6%, 36.2%)" stroke-width="1.5"></path><path d="M811.46 1035.92L678.09 938.42" stroke="hsl(228.39999999999998, 98.6%, 36.2%)" stroke-width="1.5"></path><path d="M811.46 1035.92L799.21 805.13" stroke="hsl(228.39999999999998, 98.6%, 36.2%)" stroke-width="1.5"></path><path d="M941.62 313.08L941.62 313.08" stroke="hsl(228.39999999999998, 98.6%, 36.2%)" stroke-width="1.5"></path><path d="M941.62 313.08L938.82 212.96" stroke="hsl(228.39999999999998, 98.6%, 36.2%)" stroke-width="1.5"></path><path d="M941.62 313.08L835.72 338.58" stroke="hsl(228.39999999999998, 98.6%, 36.2%)" stroke-width="1.5"></path><path d="M941.62 313.08L947.49 433.42" stroke="hsl(228.39999999999998, 98.6%, 36.2%)" stroke-width="1.5"></path><path d="M941.62 313.08L819.77 412.96" stroke="hsl(228.39999999999998, 98.6%, 36.2%)" stroke-width="1.5"></path><path d="M947.49 433.42L947.49 433.42" stroke="hsl(228.39999999999998, 98.6%, 36.2%)" stroke-width="1.5"></path><path d="M947.49 433.42L819.77 412.96" stroke="hsl(228.39999999999998, 98.6%, 36.2%)" stroke-width="1.5"></path><path d="M-66.98 835.75L-66.98 835.75" stroke="hsl(228.39999999999998, 98.6%, 36.2%)" stroke-width="1.5"></path><path d="M-66.98 835.75L-57.66 943.24" stroke="hsl(228.39999999999998, 98.6%, 36.2%)" stroke-width="1.5"></path><path d="M-66.98 835.75L87.96 914.05" stroke="hsl(228.39999999999998, 98.6%, 36.2%)" stroke-width="1.5"></path><path d="M-66.98 835.75L-90.28 1075.8" stroke="hsl(228.39999999999998, 98.6%, 36.2%)" stroke-width="1.5"></path><path d="M-66.98 835.75L182.24 807.87" stroke="hsl(228.39999999999998, 98.6%, 36.2%)" stroke-width="1.5"></path><path d="M-66.98 835.75L71.02 1068.84" stroke="hsl(228.39999999999998, 98.6%, 36.2%)" stroke-width="1.5"></path><path d="M-57.66 943.24L-57.66 943.24" stroke="hsl(228.39999999999998, 98.6%, 36.2%)" stroke-width="1.5"></path><path d="M-57.66 943.24L-90.28 1075.8" stroke="hsl(228.39999999999998, 98.6%, 36.2%)" stroke-width="1.5"></path><path d="M-57.66 943.24L87.96 914.05" stroke="hsl(228.39999999999998, 98.6%, 36.2%)" stroke-width="1.5"></path><path d="M-57.66 943.24L177.98 1033.11" stroke="hsl(228.39999999999998, 98.6%, 36.2%)" stroke-width="1.5"></path><path d="M-57.66 943.24L205.91 919.93" stroke="hsl(228.39999999999998, 98.6%, 36.2%)" stroke-width="1.5"></path><path d="M-90.28 1075.8L-90.28 1075.8" stroke="hsl(228.39999999999998, 98.6%, 36.2%)" stroke-width="1.5"></path><path d="M-90.28 1075.8L87.96 914.05" stroke="hsl(228.39999999999998, 98.6%, 36.2%)" stroke-width="1.5"></path><path d="M87.96 914.05L87.96 914.05" stroke="hsl(228.39999999999998, 98.6%, 36.2%)" stroke-width="1.5"></path><path d="M87.96 914.05L205.91 919.93" stroke="hsl(228.39999999999998, 98.6%, 36.2%)" stroke-width="1.5"></path><path d="M87.96 914.05L182.24 807.87" stroke="hsl(228.39999999999998, 98.6%, 36.2%)" stroke-width="1.5"></path><path d="M182.24 807.87L182.24 807.87" stroke="hsl(228.39999999999998, 98.6%, 36.2%)" stroke-width="1.5"></path><path d="M182.24 807.87L205.91 919.93" stroke="hsl(228.39999999999998, 98.6%, 36.2%)" stroke-width="1.5"></path><path d="M182.24 807.87L302.5 810.14" stroke="hsl(228.39999999999998, 98.6%, 36.2%)" stroke-width="1.5"></path><path d="M182.24 807.87L309.83 967.7" stroke="hsl(228.39999999999998, 98.6%, 36.2%)" stroke-width="1.5"></path><path d="M205.91 919.93L205.91 919.93" stroke="hsl(228.39999999999998, 98.6%, 36.2%)" stroke-width="1.5"></path><path d="M205.91 919.93L177.98 1033.11" stroke="hsl(228.39999999999998, 98.6%, 36.2%)" stroke-width="1.5"></path><path d="M205.91 919.93L302.5 810.14" stroke="hsl(228.39999999999998, 98.6%, 36.2%)" stroke-width="1.5"></path><path d="M205.91 919.93L302.02 1041.06" stroke="hsl(228.39999999999998, 98.6%, 36.2%)" stroke-width="1.5"></path><path d="M177.98 1033.11L177.98 1033.11" stroke="hsl(228.39999999999998, 98.6%, 36.2%)" stroke-width="1.5"></path><path d="M177.98 1033.11L302.02 1041.06" stroke="hsl(228.39999999999998, 98.6%, 36.2%)" stroke-width="1.5"></path><path d="M177.98 1033.11L87.96 914.05" stroke="hsl(228.39999999999998, 98.6%, 36.2%)" stroke-width="1.5"></path><path d="M302.5 810.14L302.5 810.14" stroke="hsl(228.39999999999998, 98.6%, 36.2%)" stroke-width="1.5"></path><path d="M302.5 810.14L309.83 967.7" stroke="hsl(228.39999999999998, 98.6%, 36.2%)" stroke-width="1.5"></path><path d="M302.02 1041.06L302.02 1041.06" stroke="hsl(228.39999999999998, 98.6%, 36.2%)" stroke-width="1.5"></path><path d="M302.02 1041.06L409.5 1079.81" stroke="hsl(228.39999999999998, 98.6%, 36.2%)" stroke-width="1.5"></path><path d="M457.52 925.45L457.52 925.45" stroke="hsl(228.39999999999998, 98.6%, 36.2%)" stroke-width="1.5"></path><path d="M457.52 925.45L570.74 914.52" stroke="hsl(228.39999999999998, 98.6%, 36.2%)" stroke-width="1.5"></path><path d="M409.5 1079.81L409.5 1079.81" stroke="hsl(228.39999999999998, 98.6%, 36.2%)" stroke-width="1.5"></path><path d="M409.5 1079.81L541.49 1031.76" stroke="hsl(228.39999999999998, 98.6%, 36.2%)" stroke-width="1.5"></path><path d="M590.36 457.91L590.36 457.91" stroke="hsl(228.39999999999998, 98.6%, 36.2%)" stroke-width="1.5"></path><path d="M590.36 457.91L579.07 584.89" stroke="hsl(228.39999999999998, 98.6%, 36.2%)" stroke-width="1.5"></path><path d="M590.36 457.91L687.82 547.45" stroke="hsl(228.39999999999998, 98.6%, 36.2%)" stroke-width="1.5"></path><path d="M579.07 584.89L579.07 584.89" stroke="hsl(228.39999999999998, 98.6%, 36.2%)" stroke-width="1.5"></path><path d="M579.07 584.89L592.68 669.26" stroke="hsl(228.39999999999998, 98.6%, 36.2%)" stroke-width="1.5"></path><path d="M579.07 584.89L687.82 547.45" stroke="hsl(228.39999999999998, 98.6%, 36.2%)" stroke-width="1.5"></path><path d="M579.07 584.89L685.05 694.5" stroke="hsl(228.39999999999998, 98.6%, 36.2%)" stroke-width="1.5"></path><path d="M592.68 669.26L592.68 669.26" stroke="hsl(228.39999999999998, 98.6%, 36.2%)" stroke-width="1.5"></path><path d="M592.68 669.26L685.05 694.5" stroke="hsl(228.39999999999998, 98.6%, 36.2%)" stroke-width="1.5"></path><path d="M592.68 669.26L687.82 547.45" stroke="hsl(228.39999999999998, 98.6%, 36.2%)" stroke-width="1.5"></path><path d="M592.68 669.26L704.15 786.51" stroke="hsl(228.39999999999998, 98.6%, 36.2%)" stroke-width="1.5"></path><path d="M592.68 669.26L579.63 842.44" stroke="hsl(228.39999999999998, 98.6%, 36.2%)" stroke-width="1.5"></path><path d="M579.63 842.44L579.63 842.44" stroke="hsl(228.39999999999998, 98.6%, 36.2%)" stroke-width="1.5"></path><path d="M579.63 842.44L570.74 914.52" stroke="hsl(228.39999999999998, 98.6%, 36.2%)" stroke-width="1.5"></path><path d="M579.63 842.44L704.15 786.51" stroke="hsl(228.39999999999998, 98.6%, 36.2%)" stroke-width="1.5"></path><path d="M579.63 842.44L678.09 938.42" stroke="hsl(228.39999999999998, 98.6%, 36.2%)" stroke-width="1.5"></path><path d="M570.74 914.52L570.74 914.52" stroke="hsl(228.39999999999998, 98.6%, 36.2%)" stroke-width="1.5"></path><path d="M570.74 914.52L678.09 938.42" stroke="hsl(228.39999999999998, 98.6%, 36.2%)" stroke-width="1.5"></path><path d="M541.49 1031.76L541.49 1031.76" stroke="hsl(228.39999999999998, 98.6%, 36.2%)" stroke-width="1.5"></path><path d="M541.49 1031.76L570.74 914.52" stroke="hsl(228.39999999999998, 98.6%, 36.2%)" stroke-width="1.5"></path><path d="M541.49 1031.76L457.52 925.45" stroke="hsl(228.39999999999998, 98.6%, 36.2%)" stroke-width="1.5"></path><path d="M671.5 47.06L671.5 47.06" stroke="hsl(228.39999999999998, 98.6%, 36.2%)" stroke-width="1.5"></path><path d="M671.5 47.06L784.49 43.74" stroke="hsl(228.39999999999998, 98.6%, 36.2%)" stroke-width="1.5"></path><path d="M671.5 47.06L792.92 -56.4" stroke="hsl(228.39999999999998, 98.6%, 36.2%)" stroke-width="1.5"></path><path d="M709.96 284.66L709.96 284.66" stroke="hsl(228.39999999999998, 98.6%, 36.2%)" stroke-width="1.5"></path><path d="M709.96 284.66L835.72 338.58" stroke="hsl(228.39999999999998, 98.6%, 36.2%)" stroke-width="1.5"></path><path d="M687.82 547.45L687.82 547.45" stroke="hsl(228.39999999999998, 98.6%, 36.2%)" stroke-width="1.5"></path><path d="M687.82 547.45L824.74 578.13" stroke="hsl(228.39999999999998, 98.6%, 36.2%)" stroke-width="1.5"></path><path d="M685.05 694.5L685.05 694.5" stroke="hsl(228.39999999999998, 98.6%, 36.2%)" stroke-width="1.5"></path><path d="M685.05 694.5L704.15 786.51" stroke="hsl(228.39999999999998, 98.6%, 36.2%)" stroke-width="1.5"></path><path d="M685.05 694.5L687.82 547.45" stroke="hsl(228.39999999999998, 98.6%, 36.2%)" stroke-width="1.5"></path><path d="M704.15 786.51L704.15 786.51" stroke="hsl(228.39999999999998, 98.6%, 36.2%)" stroke-width="1.5"></path><path d="M704.15 786.51L799.21 805.13" stroke="hsl(228.39999999999998, 98.6%, 36.2%)" stroke-width="1.5"></path><path d="M704.15 786.51L678.09 938.42" stroke="hsl(228.39999999999998, 98.6%, 36.2%)" stroke-width="1.5"></path><path d="M678.09 938.42L678.09 938.42" stroke="hsl(228.39999999999998, 98.6%, 36.2%)" stroke-width="1.5"></path><path d="M678.09 938.42L784.76 930.91" stroke="hsl(228.39999999999998, 98.6%, 36.2%)" stroke-width="1.5"></path><path d="M678.09 938.42L682.59 1063.09" stroke="hsl(228.39999999999998, 98.6%, 36.2%)" stroke-width="1.5"></path><path d="M682.59 1063.09L682.59 1063.09" stroke="hsl(228.39999999999998, 98.6%, 36.2%)" stroke-width="1.5"></path><path d="M682.59 1063.09L541.49 1031.76" stroke="hsl(228.39999999999998, 98.6%, 36.2%)" stroke-width="1.5"></path><path d="M792.92 -56.4L792.92 -56.4" stroke="hsl(228.39999999999998, 98.6%, 36.2%)" stroke-width="1.5"></path><path d="M792.92 -56.4L784.49 43.74" stroke="hsl(228.39999999999998, 98.6%, 36.2%)" stroke-width="1.5"></path><path d="M792.92 -56.4L912.96 -32.8" stroke="hsl(228.39999999999998, 98.6%, 36.2%)" stroke-width="1.5"></path><path d="M784.49 43.74L784.49 43.74" stroke="hsl(228.39999999999998, 98.6%, 36.2%)" stroke-width="1.5"></path><path d="M835.72 338.58L835.72 338.58" stroke="hsl(228.39999999999998, 98.6%, 36.2%)" stroke-width="1.5"></path><path d="M835.72 338.58L819.77 412.96" stroke="hsl(228.39999999999998, 98.6%, 36.2%)" stroke-width="1.5"></path><path d="M819.77 412.96L819.77 412.96" stroke="hsl(228.39999999999998, 98.6%, 36.2%)" stroke-width="1.5"></path><path d="M824.74 578.13L824.74 578.13" stroke="hsl(228.39999999999998, 98.6%, 36.2%)" stroke-width="1.5"></path><path d="M824.74 578.13L939.17 577.43" stroke="hsl(228.39999999999998, 98.6%, 36.2%)" stroke-width="1.5"></path><path d="M824.74 578.13L819.77 412.96" stroke="hsl(228.39999999999998, 98.6%, 36.2%)" stroke-width="1.5"></path><path d="M824.74 578.13L953.56 701.94" stroke="hsl(228.39999999999998, 98.6%, 36.2%)" stroke-width="1.5"></path><path d="M824.74 578.13L685.05 694.5" stroke="hsl(228.39999999999998, 98.6%, 36.2%)" stroke-width="1.5"></path><path d="M799.21 805.13L799.21 805.13" stroke="hsl(228.39999999999998, 98.6%, 36.2%)" stroke-width="1.5"></path><path d="M799.21 805.13L784.76 930.91" stroke="hsl(228.39999999999998, 98.6%, 36.2%)" stroke-width="1.5"></path><path d="M784.76 930.91L784.76 930.91" stroke="hsl(228.39999999999998, 98.6%, 36.2%)" stroke-width="1.5"></path><path d="M912.96 -32.8L912.96 -32.8" stroke="hsl(228.39999999999998, 98.6%, 36.2%)" stroke-width="1.5"></path><path d="M912.96 -32.8L926.94 79.86" stroke="hsl(228.39999999999998, 98.6%, 36.2%)" stroke-width="1.5"></path><path d="M912.96 -32.8L784.49 43.74" stroke="hsl(228.39999999999998, 98.6%, 36.2%)" stroke-width="1.5"></path><path d="M926.94 79.86L926.94 79.86" stroke="hsl(228.39999999999998, 98.6%, 36.2%)" stroke-width="1.5"></path><path d="M926.94 79.86L938.82 212.96" stroke="hsl(228.39999999999998, 98.6%, 36.2%)" stroke-width="1.5"></path><path d="M926.94 79.86L784.49 43.74" stroke="hsl(228.39999999999998, 98.6%, 36.2%)" stroke-width="1.5"></path><path d="M926.94 79.86L792.92 -56.4" stroke="hsl(228.39999999999998, 98.6%, 36.2%)" stroke-width="1.5"></path><path d="M938.82 212.96L938.82 212.96" stroke="hsl(228.39999999999998, 98.6%, 36.2%)" stroke-width="1.5"></path><path d="M938.82 212.96L835.72 338.58" stroke="hsl(228.39999999999998, 98.6%, 36.2%)" stroke-width="1.5"></path><path d="M939.17 577.43L939.17 577.43" stroke="hsl(228.39999999999998, 98.6%, 36.2%)" stroke-width="1.5"></path><path d="M939.17 577.43L953.56 701.94" stroke="hsl(228.39999999999998, 98.6%, 36.2%)" stroke-width="1.5"></path><path d="M939.17 577.43L947.49 433.42" stroke="hsl(228.39999999999998, 98.6%, 36.2%)" stroke-width="1.5"></path><path d="M939.17 577.43L819.77 412.96" stroke="hsl(228.39999999999998, 98.6%, 36.2%)" stroke-width="1.5"></path><path d="M939.17 577.43L942.6 783.14" stroke="hsl(228.39999999999998, 98.6%, 36.2%)" stroke-width="1.5"></path><path d="M953.56 701.94L953.56 701.94" stroke="hsl(228.39999999999998, 98.6%, 36.2%)" stroke-width="1.5"></path><path d="M953.56 701.94L942.6 783.14" stroke="hsl(228.39999999999998, 98.6%, 36.2%)" stroke-width="1.5"></path><path d="M953.56 701.94L799.21 805.13" stroke="hsl(228.39999999999998, 98.6%, 36.2%)" stroke-width="1.5"></path><path d="M942.6 783.14L942.6 783.14" stroke="hsl(228.39999999999998, 98.6%, 36.2%)" stroke-width="1.5"></path><path d="M942.6 783.14L799.21 805.13" stroke="hsl(228.39999999999998, 98.6%, 36.2%)" stroke-width="1.5"></path><path d="M913.98 935.46L913.98 935.46" stroke="hsl(228.39999999999998, 98.6%, 36.2%)" stroke-width="1.5"></path><path d="M913.98 935.46L784.76 930.91" stroke="hsl(228.39999999999998, 98.6%, 36.2%)" stroke-width="1.5"></path><path d="M913.98 935.46L934.76 1063.84" stroke="hsl(228.39999999999998, 98.6%, 36.2%)" stroke-width="1.5"></path><path d="M913.98 935.46L942.6 783.14" stroke="hsl(228.39999999999998, 98.6%, 36.2%)" stroke-width="1.5"></path><path d="M934.76 1063.84L934.76 1063.84" stroke="hsl(228.39999999999998, 98.6%, 36.2%)" stroke-width="1.5"></path><circle r="25" cx="71.02" cy="1068.84" fill="url(#SvgjsRadialGradient1025)"></circle><circle r="25" cx="309.83" cy="967.7" fill="url(#SvgjsRadialGradient1025)"></circle><circle r="25" cx="428.96" cy="678.63" fill="url(#SvgjsRadialGradient1025)"></circle><circle r="25" cx="440.22" cy="821.59" fill="url(#SvgjsRadialGradient1025)"></circle><circle r="25" cx="679.13" cy="-46.39" fill="url(#SvgjsRadialGradient1025)"></circle><circle r="25" cx="680.42" cy="218.64" fill="url(#SvgjsRadialGradient1025)"></circle><circle r="25" cx="676.95" cy="443.3" fill="url(#SvgjsRadialGradient1025)"></circle><circle r="25" cx="831.51" cy="672.42" fill="url(#SvgjsRadialGradient1025)"></circle><circle r="25" cx="811.46" cy="1035.92" fill="url(#SvgjsRadialGradient1025)"></circle><circle r="25" cx="941.62" cy="313.08" fill="url(#SvgjsRadialGradient1025)"></circle><circle r="25" cx="947.49" cy="433.42" fill="url(#SvgjsRadialGradient1025)"></circle><circle r="5" cx="-66.98" cy="835.75" fill="#808ec6"></circle><circle r="5" cx="-57.66" cy="943.24" fill="#808ec6"></circle><circle r="5" cx="-90.28" cy="1075.8" fill="#808ec6"></circle><circle r="5" cx="87.96" cy="914.05" fill="#808ec6"></circle><circle r="5" cx="182.24" cy="807.87" fill="#808ec6"></circle><circle r="5" cx="205.91" cy="919.93" fill="#808ec6"></circle><circle r="5" cx="177.98" cy="1033.11" fill="#808ec6"></circle><circle r="5" cx="302.5" cy="810.14" fill="#808ec6"></circle><circle r="5" cx="302.02" cy="1041.06" fill="#808ec6"></circle><circle r="5" cx="457.52" cy="925.45" fill="#808ec6"></circle><circle r="5" cx="409.5" cy="1079.81" fill="#808ec6"></circle><circle r="5" cx="590.36" cy="457.91" fill="#808ec6"></circle><circle r="5" cx="579.07" cy="584.89" fill="#808ec6"></circle><circle r="5" cx="592.68" cy="669.26" fill="#808ec6"></circle><circle r="5" cx="579.63" cy="842.44" fill="#808ec6"></circle><circle r="5" cx="570.74" cy="914.52" fill="#808ec6"></circle><circle r="5" cx="541.49" cy="1031.76" fill="#808ec6"></circle><circle r="5" cx="671.5" cy="47.06" fill="#808ec6"></circle><circle r="5" cx="709.96" cy="284.66" fill="#808ec6"></circle><circle r="5" cx="687.82" cy="547.45" fill="#808ec6"></circle><circle r="5" cx="685.05" cy="694.5" fill="#808ec6"></circle><circle r="5" cx="704.15" cy="786.51" fill="#808ec6"></circle><circle r="5" cx="678.09" cy="938.42" fill="#808ec6"></circle><circle r="5" cx="682.59" cy="1063.09" fill="#808ec6"></circle><circle r="5" cx="792.92" cy="-56.4" fill="#808ec6"></circle><circle r="5" cx="784.49" cy="43.74" fill="#808ec6"></circle><circle r="5" cx="835.72" cy="338.58" fill="#808ec6"></circle><circle r="5" cx="819.77" cy="412.96" fill="#808ec6"></circle><circle r="5" cx="824.74" cy="578.13" fill="#808ec6"></circle><circle r="5" cx="799.21" cy="805.13" fill="#808ec6"></circle><circle r="5" cx="784.76" cy="930.91" fill="#808ec6"></circle><circle r="5" cx="912.96" cy="-32.8" fill="#808ec6"></circle><circle r="5" cx="926.94" cy="79.86" fill="#808ec6"></circle><circle r="5" cx="938.82" cy="212.96" fill="#808ec6"></circle><circle r="5" cx="939.17" cy="577.43" fill="#808ec6"></circle><circle r="5" cx="953.56" cy="701.94" fill="#808ec6"></circle><circle r="5" cx="942.6" cy="783.14" fill="#808ec6"></circle><circle r="5" cx="913.98" cy="935.46" fill="#808ec6"></circle><circle r="5" cx="934.76" cy="1063.84" fill="#808ec6"></circle></g><defs><mask id="SvgjsMask1024"><rect width="800" height="1000" fill="#ffffff"></rect></mask><radialGradient id="SvgjsRadialGradient1025"><stop stop-color="#ffffff" offset="0.1"></stop><stop stop-color="rgba(1, 28, 141, 1)" offset="0.2"></stop><stop stop-color="rgba(1, 28, 141, 0)" offset="1"></stop></radialGradient></defs></svg>