<?xml version="1.0" standalone="no"?><svg xmlns="http://www.w3.org/2000/svg" viewBox="0 0 1440 320"><path fill="#f3f4f5" fill-opacity="1" d="M0,160L34.3,144C68.6,128,137,96,206,106.7C274.3,117,343,171,411,170.7C480,171,549,117,617,122.7C685.7,128,754,192,823,202.7C891.4,213,960,171,1029,170.7C1097.1,171,1166,213,1234,213.3C1302.9,213,1371,171,1406,149.3L1440,128L1440,0L1405.7,0C1371.4,0,1303,0,1234,0C1165.7,0,1097,0,1029,0C960,0,891,0,823,0C754.3,0,686,0,617,0C548.6,0,480,0,411,0C342.9,0,274,0,206,0C137.1,0,69,0,34,0L0,0Z"></path></svg>